<svg xmlns="http://www.w3.org/2000/svg" width="119" height="29" viewBox="307.241 -360.305 119 29" enable-background="new 307.241 -360.305 119 29"><path fill="#FFF" d="M315.753-355.375l-2.093-.81c.516-.302 1.055-.57 1.617-.805 1.186-.49 2.408-.796 3.667-.916l1.364 1.553-.623 1.597c-1.228.246-2.384.692-3.47 1.34-.078.046-.157.094-.234.144l-.227-2.103zm-3.2 6.124c.052-.12.106-.24.165-.36.654-1.338 1.567-2.44 2.74-3.3l-.228-2.063-2.164-.838c-.72.48-1.392 1.033-2.015 1.66-1.042 1.054-1.874 2.246-2.49 3.578l2.48-.523 1.512 1.844zm15.33 6.81c-.152.406-.344.805-.576 1.196-.93 1.565-2.23 2.704-3.9 3.412l-.057.024-.763 3.356 2.914 2.465.102-.032c1.694-.533 3.213-1.383 4.56-2.548 1.324-1.148 2.39-2.5 3.198-4.06.308-.594.575-1.2.8-1.82l-3.932.847-2.344-2.84zm5.027-11.032c-.213-.356-.438-.7-.68-1.033l-1.583 4.204-4.243.502c.9.952 1.485 2.1 1.76 3.447.233 1.134.21 2.225-.072 3.27l2.355 2.85 3.926-.845c.246-.786.428-1.592.545-2.42.244-1.72.196-3.432-.145-5.137-.344-1.72-.965-3.332-1.863-4.84zm-20.674 10.08c-.112-.38-.2-.77-.265-1.173-.227-1.414-.112-2.776.345-4.085l-1.494-1.824-2.535.534-.02.048c-.645 1.63-.97 3.32-.974 5.073 0 1.052.113 2.08.344 3.088l1.924-2.273 2.678.612zm3.8 5.02c-.693-.422-1.325-.954-1.89-1.594-.75-.85-1.316-1.782-1.7-2.8l-2.677-.61-1.963 2.315c.13.457.285.91.463 1.36.656 1.64 1.6 3.092 2.834 4.357.736.754 1.54 1.406 2.417 1.955l-.143-3.464 2.66-1.52zm6.68.8c-1.385.45-2.807.508-4.265.17-.65-.15-1.262-.367-1.834-.65l-2.658 1.52.144 3.487c.405.225.823.43 1.257.614 1.617.688 3.303 1.06 5.06 1.116 1.507.055 2.983-.107 4.427-.485l-2.886-2.44.756-3.332zm-3.274-14.993c.39-.015.786-.003 1.194.036 1.8.185 3.413.82 4.838 1.902.137.104.27.21.397.32l4.366-.516 1.588-4.214c-.683-.853-1.465-1.616-2.348-2.293-1.398-1.074-2.946-1.85-4.642-2.327-.802-.227-1.614-.394-2.435-.5-.584-.076-1.172-.122-1.765-.137-.984-.03-1.97-.002-2.957.083l3.285 3.74-1.52 3.905zm93.597 7.745v.043c.776.357 1.112 1.177 1.155 2.753s.084 3.32.23 3.845h-2.647c-.063-.4-.105-1.827-.105-3.382 0-1.723-.358-2.29-1.24-2.29h-.44l-1.052 5.673h-2.563l2.67-13.973c.88-.148 1.87-.253 2.816-.253 1.218 0 2.395.232 3.13.967.59.59.926 1.41.926 2.334-.003 2.08-1.263 3.74-2.88 4.286zm.188-3.972c0-.756-.315-1.556-1.303-1.556-.273 0-.524.022-.693.063l-.82 4.392h.61c1.323 0 2.206-1.407 2.206-2.9zM339.38-338.18h6.18l.46-2.332h-3.57l.776-3.93h3.11l.442-2.227h-3.174l.694-3.36h3.257l.462-2.312h-5.926l-2.71 14.162zm75.957 0h6.178l.462-2.332h-3.572l.777-3.93h3.11l.44-2.227h-3.173l.693-3.36h3.257l.462-2.312h-5.925l-2.71 14.162zm-60.77-14.163l-2.543 7.166c-.442 1.26-.925 2.92-1.22 4.013h-.04c.082-1.093.168-2.73.21-4.013l.188-7.166h-2.92l.44 14.163h2.858l5.926-14.163h-2.9zm28.657 11.473zm.904-7.123c0 1.24.567 2.374 1.68 3.425.883.882 1.41 1.43 1.41 2.374 0 1.114-.842 1.85-2.04 1.807-.755 0-1.49-.21-1.953-.483l-.672 2.29c.336.21 1.24.525 2.648.525 2.69 0 4.645-1.723 4.645-4.665 0-1.135-.546-2.374-1.7-3.405-1.136-1.01-1.41-1.534-1.41-2.206.022-1.094.778-1.808 1.893-1.808.65 0 1.113.148 1.534.38l.715-2.27c-.336-.21-1.03-.44-2.124-.44-2.776 0-4.625 1.848-4.625 4.475zm14.856-4.35h-7.544l-.484 2.48h2.46l-2.23 11.684h2.628l2.227-11.683h2.46l.484-2.48zm7.777 4.328c0 3.005-.986 6.787-2.856 8.658-.882.882-1.89 1.345-3.132 1.345-3.067 0-3.51-3.067-3.51-4.623 0-2.88.99-6.66 2.944-8.574.84-.818 1.87-1.302 3.11-1.302 3.066 0 3.445 2.817 3.445 4.497zm-2.71-.21c0-.903-.126-1.975-1.093-1.975-.336 0-.65.148-.945.44-1.303 1.325-2.038 5.275-2.038 7.377 0 .798.105 2.06 1.198 2.06.294 0 .61-.148.862-.42 1.406-1.388 2.016-5.947 2.016-7.482zm-43.84-1.807h3.257l.462-2.31h-5.927l-2.712 14.162h6.18l.463-2.332h-3.572l.78-3.93h3.11l.44-2.227h-3.174l.694-3.362zm10.432 1.367c-.44 2.354-.693 4.79-.882 6.346h-.043c-.105-1.176-.336-2.52-.693-4.39l-1.093-5.633h-2.394l-2.712 14.163h2.25l.714-3.76c.463-2.46.778-4.792.968-6.22h.042c.147 1.765.273 2.73.715 4.706l1.135 5.274h2.25l2.71-14.163h-2.27l-.696 3.678zm2.98-1.2h2.458l-2.228 11.685h2.627l2.227-11.684h2.46l.483-2.48h-7.544l-.485 2.48zm51.98 11.168l.01.034h-.3c-.01-.038-.017-.094-.02-.167-.004-.073-.01-.122-.02-.148-.016-.043-.046-.07-.088-.088-.024-.01-.06-.017-.108-.02l-.07-.004h-.065v.426h-.314v-1.207h.336c.15 0 .232 0 .25.002.094.007.173.028.237.062.106.06.16.155.16.288 0 .1-.03.174-.085.22-.057.044-.126.07-.21.08.077.016.134.04.173.07.07.056.106.147.106.27v.108l.003.036.005.037zm-.306-.797c0-.065-.033-.112-.098-.138-.044-.017-.104-.025-.183-.025h-.076v.35h.122c.073 0 .13-.015.173-.044.04-.03.06-.078.06-.144zm.566 1.007c-.21.204-.465.307-.76.307-.307 0-.565-.105-.774-.314-.21-.21-.314-.468-.314-.773 0-.318.113-.582.34-.793.212-.196.462-.295.75-.295.3 0 .555.106.768.32.212.21.32.468.32.768-.004.308-.113.57-.33.78zm-.13-.14c.176-.178.264-.392.264-.64 0-.242-.087-.452-.262-.63-.176-.182-.388-.273-.635-.273-.25 0-.464.09-.64.272-.172.177-.26.388-.26.63 0 .253.09.467.266.643.175.176.387.264.635.264.247 0 .458-.09.633-.267z"/></svg>